# xmcd
#
# Track frame offsets:
#	150
#	8172
#	19762
#	30094
#	41582
#	52855
#	65219
#	76067
#	85100
#	98114
#	110786
#	124237
#	134027
#	147435
#	160032
#	172118
#	185465
#	197002
#	208665
#	222042
#	233718
#	248866
#	262932
#	273460
#	287466
#	300208
#	313687
#
# Disc length: 4304 seconds
#
# Revision: 1
# Processed by: cddbd v1.5.1PL2 Copyright (c) Steve Scherf et al.
# Submitted via: EasyCDDAExtractor 9.0.0.1
#
DISCID=7410ce1b
DTITLE=Merle Haggard - Down Every Road Cd 1
DYEAR=1996
DGENRE=Country
TTITLE0=Skid Row
TTITLE1=Sing A Sad Song
TTITLE2=You Don't Even Try
TTITLE3=Sam Hill
TTITLE4=(My Friends Are Gonna Be) Strangers
TTITLE5=Just Between The Two Of Us
TTITLE6=If I Had Left It Up To You
TTITLE7=I'm Gonna Break Every Heart I Can
TTITLE8=Swinging Doors
TTITLE9=The Bottle Let Me Down
TTITLE10=High On A Hilltop
TTITLE11=I'll Look Over You
TTITLE12=The Fugitive
TTITLE13=House Of Memories
TTITLE14=All Of Me Belongs To You
TTITLE15=Mary's Mine
TTITLE16=Someone Told My Story
TTITLE17=Go Home
TTITLE18=Whatever Happened To Me
TTITLE19=Loneliness Is Eating Me Alive
TTITLE20=I Threw The Rose Away
TTITLE21=Branded Man
TTITLE22=You Don't Have Very Far To Go
TTITLE23=Somewhere Between
TTITLE24=Sing Me Back Home
TTITLE25=The Son Of Hickory Holler's Tramp
TTITLE26=Seeing Eye Dog
EXTD=Capitol CDP 535711
EXTT0=
EXTT1=
EXTT2=
EXTT3=
EXTT4=
EXTT5=
EXTT6=
EXTT7=
EXTT8=
EXTT9=
EXTT10=
EXTT11=
EXTT12=
EXTT13=
EXTT14=
EXTT15=
EXTT16=
EXTT17=
EXTT18=
EXTT19=
EXTT20=
EXTT21=
EXTT22=
EXTT23=
EXTT24=
EXTT25=
EXTT26=
PLAYORDER=
